# xmcd
#
# Track frame offsets:
#	150
#	21041
#	51255
#	83906
#	107004
#	158480
#	184050
#	209876
#	233418
#	258530
#	285659
#
# Disc length: 4186 seconds
#
# Revision: 1
# Processed by: cddbd v1.5.1PL0 Copyright (c) Steve Scherf et al.
# Submitted via: audiograbber 1.83.01
#
DISCID=9110580b
DTITLE=George Thorogood - 1993-12-02 - Aladdin Theater,Las Vegas, NV - Transcri
DTITLE=ption Silvers
DYEAR=1900
DGENRE=
TTITLE0=Long Gone
TTITLE1=Who Do You Love
TTITLE2=Night Time
TTITLE3=I Drink Alone
TTITLE4=One Bourbon, One Scotch, One Beer
TTITLE5=Get A Haircut
TTITLE6=Bad To The Bone
TTITLE7=Gearjammer
TTITLE8=Move It On Over
TTITLE9=You Talk Too Much
TTITLE10=Johnny B - Goode
EXTD=
EXTT0=
EXTT1=
EXTT2=
EXTT3=
EXTT4=
EXTT5=
EXTT6=
EXTT7=
EXTT8=
EXTT9=
EXTT10=
PLAYORDER=
